<?xml version="1.0" encoding="utf-8"?>
<!-- Generator: Adobe Illustrator 25.2.1, SVG Export Plug-In . SVG Version: 6.00 Build 0)  -->
<svg version="1.1" id="Layer_1" xmlns="http://www.w3.org/2000/svg" xmlns:xlink="http://www.w3.org/1999/xlink" x="0px" y="0px"
	 viewBox="0 0 22 30" style="enable-background:new 0 0 22 30;" xml:space="preserve">
<style type="text/css">
	.st0{fill:url(#SVGID_1_);}
	.st1{fill:#1E61FB;}
	.st2{fill:url(#SVGID_2_);}
	.st3{fill:#FFFFFF;}
	.st4{fill:url(#SVGID_3_);}
	.st5{fill:url(#SVGID_4_);}
</style>
<g>
	<linearGradient id="SVGID_1_" gradientUnits="userSpaceOnUse" x1="2.926" y1="20.6828" x2="19.7543" y2="5.5305">
		<stop  offset="0" style="stop-color:#3859AD"/>
		<stop  offset="0.4496" style="stop-color:#6764EA"/>
		<stop  offset="1" style="stop-color:#00B1DE"/>
	</linearGradient>
	<path class="st0" d="M0.5,11.5C0.5,5.7,5.2,1,11,1c5.8,0,10.5,4.7,10.5,10.5c0,4.2-1.5,5.4-9.4,16.9c-0.5,0.8-1.6,0.8-2.2,0
		C2,16.9,0.5,15.7,0.5,11.5z"/>
	<path class="st3" d="M15.4,11.5c0-2.4-2-4.4-4.4-4.4c-2.4,0-4.4,2-4.4,4.4s2,4.4,4.4,4.4C13.4,15.9,15.4,13.9,15.4,11.5z"/>
</g>
</svg>
